<svg xmlns="http://www.w3.org/2000/svg" xmlns:xlink="http://www.w3.org/1999/xlink" viewBox="0 0 269.6 364.07"><defs><style>.cls-1{isolation:isolate;}.cls-2{fill:url(#Áåçûìÿííûé_ãðàäèåíò_160);}.cls-3{fill:url(#Áåçûìÿííûé_ãðàäèåíò_264);}.cls-4{fill:url(#Áåçûìÿííûé_ãðàäèåíò_108);}.cls-30,.cls-35,.cls-39,.cls-43,.cls-46,.cls-5{mix-blend-mode:soft-light;}.cls-5{fill:url(#Áåçûìÿííûé_ãðàäèåíò_173);}.cls-6{fill:url(#Áåçûìÿííûé_ãðàäèåíò_119);}.cls-31,.cls-34,.cls-7{opacity:0.69;}.cls-14,.cls-25,.cls-26,.cls-27,.cls-28,.cls-29,.cls-31,.cls-34,.cls-42,.cls-7{mix-blend-mode:multiply;}.cls-7{fill:url(#Áåçûìÿííûé_ãðàäèåíò_97);}.cls-8{fill:url(#Áåçûìÿííûé_ãðàäèåíò_108-2);}.cls-9{fill:url(#Áåçûìÿííûé_ãðàäèåíò_264-2);}.cls-10{fill:url(#Áåçûìÿííûé_ãðàäèåíò_303);}.cls-11{fill:url(#Áåçûìÿííûé_ãðàäèåíò_71);}.cls-12{fill:url(#Áåçûìÿííûé_ãðàäèåíò_71-2);}.cls-13{fill:url(#Áåçûìÿííûé_ãðàäèåíò_50);}.cls-14{fill:#8b92ab;}.cls-14,.cls-25,.cls-26,.cls-27,.cls-28,.cls-29,.cls-42{opacity:0.9;}.cls-15{fill:url(#Áåçûìÿííûé_ãðàäèåíò_264-3);}.cls-16{fill:url(#Áåçûìÿííûé_ãðàäèåíò_38);}.cls-17{fill:url(#Áåçûìÿííûé_ãðàäèåíò_303-2);}.cls-18{fill:url(#Áåçûìÿííûé_ãðàäèåíò_23);}.cls-19{fill:url(#Áåçûìÿííûé_ãðàäèåíò_66);}.cls-20{fill:url(#Áåçûìÿííûé_ãðàäèåíò_66-2);}.cls-21{fill:url(#Áåçûìÿííûé_ãðàäèåíò_325);}.cls-22{fill:url(#Áåçûìÿííûé_ãðàäèåíò_325-2);}.cls-23{fill:#bf5b71;}.cls-24{fill:url(#Áåçûìÿííûé_ãðàäèåíò_275);}.cls-25{fill:url(#Áåçûìÿííûé_ãðàäèåíò_41);}.cls-26{fill:url(#Áåçûìÿííûé_ãðàäèåíò_41-2);}.cls-27{fill:url(#Áåçûìÿííûé_ãðàäèåíò_41-3);}.cls-28{fill:url(#Áåçûìÿííûé_ãðàäèåíò_41-4);}.cls-29{fill:url(#Áåçûìÿííûé_ãðàäèåíò_41-5);}.cls-30{opacity:0.5;fill:url(#Áåçûìÿííûé_ãðàäèåíò_192);}.cls-31{fill:url(#Áåçûìÿííûé_ãðàäèåíò_41-6);}.cls-32{fill:url(#Áåçûìÿííûé_ãðàäèåíò_52);}.cls-33{fill:url(#Áåçûìÿííûé_ãðàäèåíò_52-2);}.cls-34{fill:url(#Áåçûìÿííûé_ãðàäèåíò_41-7);}.cls-35{fill:url(#Áåçûìÿííûé_ãðàäèåíò_234);}.cls-36{fill:url(#Áåçûìÿííûé_ãðàäèåíò_108-3);}.cls-37{fill:url(#Áåçûìÿííûé_ãðàäèåíò_108-4);}.cls-38{fill:url(#Áåçûìÿííûé_ãðàäèåíò_160-2);}.cls-39{fill:url(#Áåçûìÿííûé_ãðàäèåíò_173-2);}.cls-40{fill:url(#Áåçûìÿííûé_ãðàäèåíò_303-3);}.cls-41{fill:url(#Áåçûìÿííûé_ãðàäèåíò_41-8);}.cls-42{fill:url(#Áåçûìÿííûé_ãðàäèåíò_41-9);}.cls-43{fill:url(#Áåçûìÿííûé_ãðàäèåíò_234-2);}.cls-44{fill:url(#Áåçûìÿííûé_ãðàäèåíò_52-3);}.cls-45{fill:url(#Áåçûìÿííûé_ãðàäèåíò_52-4);}.cls-46{fill:url(#Áåçûìÿííûé_ãðàäèåíò_234-3);}.cls-47{fill:#542a8d;}.cls-48{fill:url(#Áåçûìÿííûé_ãðàäèåíò_52-5);}.cls-49{fill:url(#Áåçûìÿííûé_ãðàäèåíò_52-6);}.cls-50{fill:url(#Áåçûìÿííûé_ãðàäèåíò_52-7);}.cls-51{fill:url(#Áåçûìÿííûé_ãðàäèåíò_25);}</style><linearGradient id="Áåçûìÿííûé_ãðàäèåíò_160" x1="554.34" y1="258.82" x2="554.34" y2="176.97" gradientTransform="matrix(-1, 0, 0, 1, 1234.4, 0)" gradientUnits="userSpaceOnUse"><stop offset="0" stop-color="#9c91de"/><stop offset="1" stop-color="#cf95ff"/></linearGradient><linearGradient id="Áåçûìÿííûé_ãðàäèåíò_264" x1="497.69" y1="261.27" x2="497.69" y2="180.48" gradientTransform="matrix(-1, 0, 0, 1, 1234.4, 0)" gradientUnits="userSpaceOnUse"><stop offset="0" stop-color="#b9acf4"/><stop offset="1" stop-color="#e1d1f5"/></linearGradient><linearGradient id="Áåçûìÿííûé_ãðàäèåíò_108" x1="554.7" y1="258.82" x2="554.7" y2="177.78" gradientTransform="matrix(-1, 0, 0, 1, 1234.4, 0)" gradientUnits="userSpaceOnUse"><stop offset="0" stop-color="#6fffff"/><stop offset="1" stop-color="#00d6ff"/></linearGradient><linearGradient id="Áåçûìÿííûé_ãðàäèåíò_173" x1="526.71" y1="217.88" x2="599.1" y2="217.88" gradientTransform="matrix(-1, 0, 0, 1, 1234.4, 0)" gradientUnits="userSpaceOnUse"><stop offset="0" stop-color="#f2edff"/><stop offset="1" stop-color="#af8bc2"/></linearGradient><linearGradient id="Áåçûìÿííûé_ãðàäèåíò_119" x1="670.73" y1="428.6" x2="670.73" y2="362.92" gradientTransform="matrix(-1, 0, 0, 1, 1234.4, 0)" gradientUnits="userSpaceOnUse"><stop offset="0" stop-color="#4b186d"/><stop offset="1" stop-color="#2c0059"/></linearGradient><linearGradient id="Áåçûìÿííûé_ãðàäèåíò_97" x1="674.08" y1="387.18" x2="674.08" y2="362.92" gradientTransform="matrix(-1, 0, 0, 1, 1234.4, 0)" gradientUnits="userSpaceOnUse"><stop offset="0" stop-color="#979dd3"/><stop offset="1" stop-color="#9486a4"/></linearGradient><linearGradient id="Áåçûìÿííûé_ãðàäèåíò_108-2" x1="627.22" y1="150.04" x2="627.22" y2="128.22" xlink:href="#Áåçûìÿííûé_ãðàäèåíò_108"/><linearGradient id="Áåçûìÿííûé_ãðàäèåíò_264-2" x1="563.63" y1="273.29" x2="563.63" y2="253.88" xlink:href="#Áåçûìÿííûé_ãðàäèåíò_264"/><linearGradient id="Áåçûìÿííûé_ãðàäèåíò_303" x1="606.82" y1="252.04" x2="606.82" y2="237.8" gradientTransform="matrix(-1, 0, 0, 1, 1234.4, 0)" gradientUnits="userSpaceOnUse"><stop offset="0.01" stop-color="#f48781"/><stop offset="1" stop-color="#ef7a8e"/></linearGradient><linearGradient id="Áåçûìÿííûé_ãðàäèåíò_71" x1="668.45" y1="204.46" x2="668.45" y2="79.09" gradientTransform="matrix(-1, 0, 0, 1, 1234.4, 0)" gradientUnits="userSpaceOnUse"><stop offset="0.02" stop-color="#ffc2a9"/><stop offset="1" stop-color="#ff9595"/></linearGradient><linearGradient id="Áåçûìÿííûé_ãðàäèåíò_71-2" x1="595.77" y1="229.07" x2="650.66" y2="260.76" xlink:href="#Áåçûìÿííûé_ãðàäèåíò_71"/><linearGradient id="Áåçûìÿííûé_ãðàäèåíò_50" x1="652.12" y1="374.83" x2="652.12" y2="199.71" gradientTransform="matrix(-1, 0, 0, 1, 1234.4, 0)" gradientUnits="userSpaceOnUse"><stop offset="0" stop-color="#161270"/><stop offset="1" stop-color="#312aa2"/></linearGradient><linearGradient id="Áåçûìÿííûé_ãðàäèåíò_264-3" x1="688.53" y1="215.02" x2="688.53" y2="187.74" xlink:href="#Áåçûìÿííûé_ãðàäèåíò_264"/><linearGradient id="Áåçûìÿííûé_ãðàäèåíò_38" x1="699.58" y1="283.85" x2="699.58" y2="182.88" gradientTransform="matrix(-1, 0, 0, 1, 1234.4, 0)" gradientUnits="userSpaceOnUse"><stop offset="0" stop-color="#1d1990"/><stop offset="1" stop-color="#314dc4"/></linearGradient><linearGradient id="Áåçûìÿííûé_ãðàäèåíò_303-2" x1="662.56" y1="190.37" x2="662.56" y2="113.95" xlink:href="#Áåçûìÿííûé_ãðàäèåíò_303"/><linearGradient id="Áåçûìÿííûé_ãðàäèåíò_23" x1="661.56" y1="176.96" x2="661.56" y2="64.53" gradientTransform="matrix(-1, 0, 0, 1, 1234.4, 0)" gradientUnits="userSpaceOnUse"><stop offset="0" stop-color="#47003e"/><stop offset="1" stop-color="#6a0b6a"/></linearGradient><linearGradient id="Áåçûìÿííûé_ãðàäèåíò_66" x1="666.02" y1="159.87" x2="666.02" y2="130.17" gradientTransform="matrix(-1, 0, 0, 1, 1234.4, 0)" gradientUnits="userSpaceOnUse"><stop offset="0" stop-color="#ff9595"/><stop offset="0.98" stop-color="#ffc2a9"/></linearGradient><linearGradient id="Áåçûìÿííûé_ãðàäèåíò_66-2" x1="666.31" y1="163.92" x2="666.31" y2="159.32" xlink:href="#Áåçûìÿííûé_ãðàäèåíò_66"/><linearGradient id="Áåçûìÿííûé_ãðàäèåíò_325" x1="662.12" y1="155.97" x2="662.12" y2="137.81" gradientTransform="matrix(-1, 0, 0, 1, 1234.4, 0)" gradientUnits="userSpaceOnUse"><stop offset="0" stop-color="#db5f69"/><stop offset="1" stop-color="#dc505e"/></linearGradient><linearGradient id="Áåçûìÿííûé_ãðàäèåíò_325-2" x1="661.53" y1="154.38" x2="661.53" y2="140.71" xlink:href="#Áåçûìÿííûé_ãðàäèåíò_325"/><linearGradient id="Áåçûìÿííûé_ãðàäèåíò_275" x1="641.1" y1="137.81" x2="641.1" y2="133.34" gradientTransform="matrix(-1, 0, 0, 1, 752, -64.53)" gradientUnits="userSpaceOnUse"><stop offset="0" stop-color="#382763"/><stop offset="1" stop-color="#5b38ae"/></linearGradient><linearGradient id="Áåçûìÿííûé_ãðàäèåíò_41" x1="711" y1="133.73" x2="711" y2="130.97" gradientTransform="matrix(-1, 0, 0, 1, 1234.4, 0)" gradientUnits="userSpaceOnUse"><stop offset="0" stop-color="#ccb8ff"/><stop offset="1" stop-color="#af8bc2"/></linearGradient><linearGradient id="Áåçûìÿííûé_ãðàäèåíò_41-2" x1="660.35" y1="176.96" x2="660.35" y2="80.62" xlink:href="#Áåçûìÿííûé_ãðàäèåíò_41"/><linearGradient id="Áåçûìÿííûé_ãðàäèåíò_41-3" x1="663.63" y1="82.09" x2="663.63" y2="73.36" xlink:href="#Áåçûìÿííûé_ãðàäèåíò_41"/><linearGradient id="Áåçûìÿííûé_ãðàäèåíò_41-4" x1="664.78" y1="115.7" x2="664.78" y2="98.36" gradientTransform="matrix(-0.94, -0.33, -0.33, 0.94, 1230.38, 224.12)" xlink:href="#Áåçûìÿííûé_ãðàäèåíò_41"/><linearGradient id="Áåçûìÿííûé_ãðàäèåíò_41-5" x1="674.07" y1="166.44" x2="674.07" y2="132.35" xlink:href="#Áåçûìÿííûé_ãðàäèåíò_41"/><linearGradient id="Áåçûìÿííûé_ãðàäèåíò_192" x1="629.23" y1="90.91" x2="710.66" y2="90.91" gradientTransform="matrix(-1, 0, 0, 1, 1234.4, 0)" gradientUnits="userSpaceOnUse"><stop offset="0" stop-color="#af8bc2"/><stop offset="1" stop-color="#f7f9ff"/></linearGradient><linearGradient id="Áåçûìÿííûé_ãðàäèåíò_41-6" x1="647.6" y1="242.18" x2="746.29" y2="242.18" xlink:href="#Áåçûìÿííûé_ãðàäèåíò_41"/><linearGradient id="Áåçûìÿííûé_ãðàäèåíò_52" x1="572.25" y1="252.73" x2="643.19" y2="252.73" gradientTransform="matrix(-1, 0, 0, 1, 1234.4, 0)" gradientUnits="userSpaceOnUse"><stop offset="0" stop-color="#64abfe"/><stop offset="0.48" stop-color="#6365d1"/><stop offset="1" stop-color="#8642a0"/></linearGradient><linearGradient id="Áåçûìÿííûé_ãðàäèåíò_52-2" x1="647.16" y1="198.02" x2="664.52" y2="198.02" xlink:href="#Áåçûìÿííûé_ãðàäèåíò_52"/><linearGradient id="Áåçûìÿííûé_ãðàäèåíò_41-7" x1="677.9" y1="247.56" x2="724.47" y2="247.56" xlink:href="#Áåçûìÿííûé_ãðàäèåíò_41"/><linearGradient id="Áåçûìÿííûé_ãðàäèåíò_234" x1="657.7" y1="222.71" x2="741.03" y2="222.71" gradientTransform="matrix(-1, 0, 0, 1, 1234.4, 0)" gradientUnits="userSpaceOnUse"><stop offset="0" stop-color="#af8bc2"/><stop offset="1" stop-color="#ccb8ff"/></linearGradient><linearGradient id="Áåçûìÿííûé_ãðàäèåíò_108-3" x1="623.79" y1="126.77" x2="623.79" y2="99.66" xlink:href="#Áåçûìÿííûé_ãðàäèåíò_108"/><linearGradient id="Áåçûìÿííûé_ãðàäèåíò_108-4" x1="643.15" y1="184.87" x2="643.15" y2="142.87" xlink:href="#Áåçûìÿííûé_ãðàäèåíò_108"/><linearGradient id="Áåçûìÿííûé_ãðàäèåíò_160-2" x1="514.74" y1="272.35" x2="514.74" y2="259.98" xlink:href="#Áåçûìÿííûé_ãðàäèåíò_160"/><linearGradient id="Áåçûìÿííûé_ãðàäèåíò_173-2" x1="525.73" y1="241.65" x2="580.23" y2="273.12" xlink:href="#Áåçûìÿííûé_ãðàäèåíò_173"/><linearGradient id="Áåçûìÿííûé_ãðàäèåíò_303-3" x1="684.06" y1="200.3" x2="684.06" y2="191.6" xlink:href="#Áåçûìÿííûé_ãðàäèåíò_303"/><linearGradient id="Áåçûìÿííûé_ãðàäèåíò_41-8" x1="694.49" y1="199.36" x2="709.56" y2="199.36" xlink:href="#Áåçûìÿííûé_ãðàäèåíò_41"/><linearGradient id="Áåçûìÿííûé_ãðàäèåíò_41-9" x1="685.96" y1="133.34" x2="685.96" y2="119.84" xlink:href="#Áåçûìÿííûé_ãðàäèåíò_41"/><linearGradient id="Áåçûìÿííûé_ãðàäèåíò_234-2" x1="660.76" y1="360.45" x2="660.76" y2="311.77" xlink:href="#Áåçûìÿííûé_ãðàäèåíò_234"/><linearGradient id="Áåçûìÿííûé_ãðàäèåíò_52-3" x1="628.1" y1="350.26" x2="664" y2="350.26" xlink:href="#Áåçûìÿííûé_ãðàäèåíò_52"/><linearGradient id="Áåçûìÿííûé_ãðàäèåíò_52-4" x1="638.93" y1="326.92" x2="645.81" y2="326.92" xlink:href="#Áåçûìÿííûé_ãðàäèåíò_52"/><linearGradient id="Áåçûìÿííûé_ãðàäèåíò_234-3" x1="643.27" y1="219.28" x2="643.27" y2="203.61" xlink:href="#Áåçûìÿííûé_ãðàäèåíò_234"/><linearGradient id="Áåçûìÿííûé_ãðàäèåíò_52-5" x1="531.11" y1="266.98" x2="531.11" y2="265.3" gradientTransform="matrix(-1, 0, 0, 1, 752, -64.53)" xlink:href="#Áåçûìÿííûé_ãðàäèåíò_52"/><linearGradient id="Áåçûìÿííûé_ãðàäèåíò_52-6" x1="545.13" y1="266.14" x2="545.13" y2="264.84" gradientTransform="matrix(-1, 0, 0, 1, 752, -64.53)" xlink:href="#Áåçûìÿííûé_ãðàäèåíò_52"/><linearGradient id="Áåçûìÿííûé_ãðàäèåíò_52-7" x1="570.89" y1="266.44" x2="570.89" y2="259.27" xlink:href="#Áåçûìÿííûé_ãðàäèåíò_52"/><linearGradient id="Áåçûìÿííûé_ãðàäèåíò_25" x1="588.14" y1="261.29" x2="611.25" y2="261.29" gradientTransform="matrix(-1, 0, 0, 1, 1234.4, 0)" gradientUnits="userSpaceOnUse"><stop offset="0" stop-color="#8642a0"/><stop offset="1" stop-color="#6456c0"/></linearGradient></defs><title>639 [Converted]</title><g class="cls-1"><g id="Couple"><path class="cls-2" d="M750.56,180.48s-15.1,47.8-29.13,78.34l-111.86-5.5s11.55-42.44,25.74-75.32C635.31,178,695.89,174.48,750.56,180.48Z" transform="translate(-482.4 -64.53)"/><path class="cls-3" d="M750.56,180.48s1.44.25,1.44,4.21l-28.77,76.58-1.8-2.45S744.63,201.27,750.56,180.48Z" transform="translate(-482.4 -64.53)"/><path class="cls-4" d="M748.05,181.45c2.78,1.14-29.14,77.37-29.14,77.37l-107.72-5.5s21.68-70,25.26-73.58S739.59,178,748.05,181.45Z" transform="translate(-482.4 -64.53)"/><path class="cls-5" d="M679.7,177l28,81.86-58.75-3.16L635.31,178S667.54,176.83,679.7,177Z" transform="translate(-482.4 -64.53)"/><path class="cls-6" d="M605.41,372.44s6.72,27.2,7.44,56.16H522.69s-1.2-17.32,0-30l-5.28-2.4s-3.91-19.27-2.68-33.26Z" transform="translate(-482.4 -64.53)"/><path class="cls-7" d="M606.37,376.65s-31.65.45-55.15,3.33-35.3,7.2-35.3,7.2-2.68-13.27-1.19-24.26c0,0,30.25,10.6,90.68,9.52Z" transform="translate(-482.4 -64.53)"/><path class="cls-8" d="M612.73,129.05l-3.16-.83s-5.41,16.45-7.92,21.36l2.56.46A170,170,0,0,0,612.73,129.05Z" transform="translate(-482.4 -64.53)"/><path class="cls-9" d="M723.49,260.58s.94,9.47-3.74,12.71L641.46,268S618,259.92,618,253.88l103.46,4.94S722.79,258.43,723.49,260.58Z" transform="translate(-482.4 -64.53)"/><path class="cls-10" d="M638.72,246.26s4.35,4.77,4,5.47-4.78.27-7.4-1.71a3.4,3.4,0,0,1-2.47-.33,8.61,8.61,0,0,1-3.7-5.77s-1.12-1.3-7.07-.87a35.67,35.67,0,0,0-8.85,1.5l-.86-2.2s5.79-5.09,12-4.5S638.72,246.26,638.72,246.26Z" transform="translate(-482.4 -64.53)"/><path class="cls-11" d="M605.17,92.13s4.74,6.05,4.38,11.27-9,33.63-9,35.25,2.69,6.65,2.33,9.53-13.84,28-23.91,36.69c0,0-7.2.17-11.15-1.62a79.38,79.38,0,0,0-5,21s-20.86,2.16-28.77-9c0,0,9.17-19.52,9.71-27.66,0,0-10.07-26.11-21.4-39.69,0,0,3-36.24,25.71-44.69S597.38,80,605.17,92.13Z" transform="translate(-482.4 -64.53)"/><path class="cls-12" d="M586.62,236.72s22.84-4.18,38.27-3.21a105,105,0,0,1,13.41,6.21c6.43,3.65,11.36,7.94,11.47,8.69s-6.11,2.36-11.69-.86-7.61-6.13-7.61-6.13-8.36-.95-13.4.45-8.58,3.54-7.83,4.5,3.22,1.72,8.36,1.61,10-.75,13.73,1.5,3.11,3.65,3,4.4-7.4.64-12.54,0-18.23.94-22.31.52S588,246.8,586,246.16s-10.3.64-10.3.64l5.9-10.72Z" transform="translate(-482.4 -64.53)"/><path class="cls-13" d="M502.9,343.37c.72,4,10.79,13.25,10.79,13.25v5.75s7.56,4.68,32.19,10.07,59.53,0,59.53,0c1.08-6.11-2.15-12.23-2.15-12.23s4-5,2.87-9-10.07-7.85-10.07-7.85c-12.22-25.85-2.88-58.33-2.88-58.33,9.85,2.46,18.06,7.16,24.68,11.63l0,0a1.53,1.53,0,0,1,.21.14l.4.27.27.18c6.48,4.44,11.36,8.54,14.7,9.84,6.83,2.66,32.73.94,33.45-2.83.34-1.79.12-6.65-.71-11.79-.78-4.93-2.11-10.11-4-13.05h0a7.08,7.08,0,0,0-1-1.25c-4.68-4.69-18-11.49-26.61-15.17s-22.72-22-22.72-22A58.47,58.47,0,0,0,609.94,226c-.12-.44-.23-.85-.34-1.24l0-.08a35.52,35.52,0,0,0-2-5.43,69.59,69.59,0,0,1-20.32-14.82c-3.41-6.85-14.42-4.28-14.42-4.28l-51.94,23.39s-13.18,14.92-19.75,26.9c-2.32,4.24-3.82,8.09-3.63,10.8.62,8.89,10.42,57.22,12.59,72.68V334a18.08,18.08,0,0,1,.35,4.59C509.37,341.15,502.19,339.35,502.9,343.37Z" transform="translate(-482.4 -64.53)"/><path class="cls-14" d="M555.22,257.34c6.88-17.75,20.52-50.54,20.52-50.54l-74.6,43.67c-2.32,4.24-3.82,8.09-3.63,10.8.62,8.89,10.42,57.22,12.59,72.68l-2.52-31.53c7.43,9.83,19.18,14.39,19.18,14.39-5.75-5-8.63-15.59-8.63-15.59S548.35,275.08,555.22,257.34Z" transform="translate(-482.4 -64.53)"/><path class="cls-15" d="M568.37,197.63h-4.61l-2.11,2.64a62.73,62.73,0,0,1-17.26-2.64c-9-2.75-8.16-7.26-8.16-7.26l1.12-2.63H534.8s-1.2,1-5.28,0c0,0-8.87,10.13-5.28,20.92,0,0,3.12,6.48,16.55,6.36S564.05,205.07,568.37,197.63Z" transform="translate(-482.4 -64.53)"/><path class="cls-16" d="M482.4,222s.14,3.23.85,8.08h0a98.83,98.83,0,0,0,3.66,16c.36,1.13.76,2.26,1.18,3.38,0,0,0,0,0,0a57.68,57.68,0,0,0,3.65,7.85c8.45,14.92,19.6,25.18,23.56,26.44s29.49-15.11,41.71-37.95,16.55-36.68,18.71-39,7.74-4.82,11.07-2.67l.13.09.2.15.1.08c-.19-.39-4.56-9.22-8.08-11.59-1.85-1.24-5.82,0-9.28,1.56h0c-1.17.54-2.27,1.1-3.22,1.59-1.72.91-2.9,1.62-2.9,1.62h4.61s-17.44,18-40.82,12.41c0,0-7.73-8.63,2-22.3h5.27l2.46,1.08.43-1.58.21-.79s-2.25.57-5.85-1-5.8-3.06-8.66-2.35S491.58,200.12,482.4,222Z" transform="translate(-482.4 -64.53)"/><path class="cls-17" d="M601.79,133.64s-10.76,3.33-17,12.08-12.27,29-11.95,30.33,6.14,8.82,6.14,8.82-6.42.41-11.15-1.62a18.67,18.67,0,0,0-6.42-9.24s-17.16,8.25-25.18,16.36c0,0,4.92-12.16,6-15.52s8.15-28,8.15-28l9.71-26.21L607.45,114S603.68,127.67,601.79,133.64Z" transform="translate(-482.4 -64.53)"/><path class="cls-18" d="M522.33,105.19c2.15-10.44,10.65-19.07,17.58-24.57l.06-.06a76.57,76.57,0,0,1,9.45-6.44l.07,0s-5.59-3.42-6.3-9c0,0,4.13,5.57,10.78,6.12s21.67-8.42,30.4-6.38c6.88,1.6,20.8,15.79,20.8,15.79l.1,0,.15.06c.29.11.83.32,1.55.62l.21.1c4.09,1.73,13.26,6.1,16.58,11.53a7.43,7.43,0,0,1,1,3.63h0c.35,7.64-7.4,19.57-15.2,25.67-5.39,4.22-9.77,4.69-12.47,4.35h0c-4.17,3.28-8.41,6.05-12.19,7.46l-4,9.59s.48-8.39-5.15-12.58c0,0-2.88-2.4-6-1.45,0,0-5.58-.3-8.28,12.12-2.37,10.93.12,17.37,1,18.69,0,0-6.71,11.39-13.07,13.8V172.1s-3.43,4-7.95,4.86c0,0,1.48-7.62.75-9.9S530.83,140.81,523.4,131v2.74h0C523.14,133.15,518.66,123,522.33,105.19Zm95.79,1.09a193.89,193.89,0,0,1-15.32,15.54A30.43,30.43,0,0,0,618.12,106.28Z" transform="translate(-482.4 -64.53)"/><path class="cls-19" d="M575.68,132.53s-4.56-.24-8.39,6-4.08,21.34-4.08,21.34-4.6-10.43-.28-21.18c4-9.93,8.91-8.44,8.91-8.44S574.58,131.09,575.68,132.53Z" transform="translate(-482.4 -64.53)"/><path class="cls-20" d="M572.23,159.87s-2.79,4.13-5.21,4a3.24,3.24,0,0,1-3.06-2S569.26,157.89,572.23,159.87Z" transform="translate(-482.4 -64.53)"/><path class="cls-21" d="M574.54,137.81a25.35,25.35,0,0,0-5.51,7.73c-1.86,4.38-.93,10.43-.93,10.43a33.68,33.68,0,0,1,1.82-9.08c1.56-3.87,5.76-6.51,5.76-6.51l1,1A10.37,10.37,0,0,0,574.54,137.81Z" transform="translate(-482.4 -64.53)"/><path class="cls-22" d="M573.4,140.71a11.08,11.08,0,0,1,1.71,5.22c.27,3.24-1.92,7.3-4.5,8.45,0,0,2.7-2.79,2.88-5.84a10.94,10.94,0,0,0-1.65-5.85Z" transform="translate(-482.4 -64.53)"/><path class="cls-23" d="M579,184.87s-5.94-7.29-9.18-10.44l-2,8.82S571,185.58,579,184.87Z" transform="translate(-482.4 -64.53)"/><path class="cls-23" d="M566.93,164.54s-1.8.6-4.44-4.07l-4.13,6S564.89,167.54,566.93,164.54Z" transform="translate(-482.4 -64.53)"/><polygon class="cls-24" points="126.16 70.52 122.2 68.81 95.63 68.81 96.96 71.06 120.14 71.06 125.05 73.28 126.16 70.52"/><path class="cls-25" d="M523.4,131v2.73h0V131Z" transform="translate(-482.4 -64.53)"/><path class="cls-26" d="M523.4,131c7.43,9.84,18.11,33.81,18.82,36.09s-.75,9.9-.75,9.9c4.52-.89,7.95-4.86,7.95-4.86v2.16c6.36-2.41,13.07-13.8,13.07-13.8-.84-1.32-3.33-7.76-1-18.69,2.7-12.42,8.28-12.12,8.28-12.12,3.11-1,6,1.45,6,1.45,5.63,4.19,5.15,12.58,5.15,12.58l4-9.59c3.78-1.41,8-4.18,12.19-7.46h0c2.7.34,7.08-.13,12.47-4.35,7.8-6.1,15.55-18,15.2-25.67-.2.43-1.92,4-7.49,8.22-5.83,4.43-17.94,11.11-18.33,11.33.2-.44,7.14-14.35,8.5-20.44s-.27-14.28-.27-14.28l-.21-.1-1.55-.62-.15-.06-.1,0s-.12,10.67-.83,14.38-20.63,22.61-28.66,27.64-23.86,8.23-29.43,7.54c0,0,19.09-7.15,22.13-9.59s11.32-15.27,11.83-16.08c-.67.79-11.46,13.37-16.25,15.54-4.94,2.23-23.11,8-31.56,7.91,0,0-3.78-3.7-5.58-12.88a28.68,28.68,0,0,1,1.95-16.66c-.44.78-5.2,9.4-5.37,15.85C523.22,121,523.4,131,523.4,131Z" transform="translate(-482.4 -64.53)"/><path class="cls-27" d="M601.65,79.09S588.87,73.18,584,73.36s-17.63,4-22.93,4-11.6-3.24-11.6-3.24l-9.58,6.54s12.64,1.92,20,1.38,19.25-7.38,25.54-6.12S601.65,79.09,601.65,79.09Z" transform="translate(-482.4 -64.53)"/><path class="cls-28" d="M581.47,99.57s-8.89-3.06-13.17-2.42-14.11,11.18-14.11,11.18,9.25-6,14.73-7.49A49.85,49.85,0,0,1,581.47,99.57Z" transform="translate(-482.4 -64.53)"/><path class="cls-29" d="M565.44,132.35A21.39,21.39,0,0,0,556,143.92c-2.7,8.09,2.34,22.52,2.34,22.52l4.13-6s-2.59-3.8-2.23-12.53A32.42,32.42,0,0,1,565.44,132.35Z" transform="translate(-482.4 -64.53)"/><path class="cls-30" d="M605.17,80.62s-.13,8.93-2.37,11.27S572.89,93.43,567.86,95s-9.75,6.95-21.79,9.83-19.26,0-19.26,0,2.35-5.64,4.33-9.83l-7.4,5.51S531,87,538.87,80.62c0,0,11.55,3.82,21,1.38s19.59-7.3,25.54-6.12,16.2,3.21,16.2,3.21Z" transform="translate(-482.4 -64.53)"/><path class="cls-14" d="M495.53,237s4,7.19,7.73,8.27,31.82-13.13,42.62-20.68,27.52-28.06,27.52-28.06l-6.75-.54c-1.72.91-2.9,1.62-2.9,1.62h4.61s-17.44,18-40.82,12.41c0,0-7.73-8.63,2-22.3,0,0-4-1.08-5.78,0s-25.19,31.2-26.25,33.14S495.53,237,495.53,237Z" transform="translate(-482.4 -64.53)"/><path class="cls-31" d="M488.11,249.49a57.68,57.68,0,0,0,3.65,7.85c8.45,14.92,19.6,25.18,23.56,26.44s29.49-15.11,41.71-37.95,16.55-36.68,18.71-39,7.74-4.82,11.07-2.67c-1.25-.91-4.78-3.33-7.11-3.62-2.88-.36-20.5,28.75-23.2,30.66L509.93,264c.72-.19,23.48-6.58,30.56-9.18,0,0-17.63,25.77-24.81,27.2C515.68,282,495.1,264.43,488.11,249.49Z" transform="translate(-482.4 -64.53)"/><path class="cls-14" d="M483.25,230.07h0a98.83,98.83,0,0,0,3.66,16,51.53,51.53,0,0,0,7.54,3.54C488.52,243.86,483.25,230.07,483.25,230.07Z" transform="translate(-482.4 -64.53)"/><path class="cls-14" d="M484.74,224.07c1.59,3.76,18.52,21.22,18.52,21.22,6.29-.36,33.41-14.95,43.59-21.38s27.2-28.25,27.2-28.25l-4.17-1.24h0c-1.17.54-2.27,1.1-3.22,1.59-1.72.91-2.9,1.62-2.9,1.62h4.61s-17.44,18-40.82,12.41c0,0-7.73-8.63,2-22.3h5.27l2.46,1.08.43-1.58-8.7-1.47s-10.43,2.51-16.37,6.29S483.15,220.32,484.74,224.07Z" transform="translate(-482.4 -64.53)"/><path class="cls-14" d="M544.75,362.93c-28.3-7.6-41.85-19.56-41.85-19.56.72,4,10.79,13.25,10.79,13.25v1.52a107.31,107.31,0,0,0,45,9.64c29.91,0,43.67-7.06,44.56-7.55C601.88,360.68,572.4,370.35,544.75,362.93Z" transform="translate(-482.4 -64.53)"/><path class="cls-14" d="M514.49,330.11S525,343.66,529.36,347.5s21.86,12.95,21.86,12.95-21.14-6.24-27.83-10.31S514.49,330.11,514.49,330.11Z" transform="translate(-482.4 -64.53)"/><path class="cls-14" d="M567.29,287.29S561.53,307,551.22,319s-24.46,20.14-24.46,20.14,19.67-20.41,23.5-25.91S567.29,287.29,567.29,287.29Z" transform="translate(-482.4 -64.53)"/><path class="cls-14" d="M621,257.58s-13-1-24-2.89a49.7,49.7,0,0,1-18-6.7s12.29,12.18,18.28,13.28S621,257.58,621,257.58Z" transform="translate(-482.4 -64.53)"/><path class="cls-14" d="M593.18,285a195.87,195.87,0,0,1-20.9-8L591,295.76S592,289.57,593.18,285Z" transform="translate(-482.4 -64.53)"/><path class="cls-32" d="M591.21,253.34c12.56,3.63,31.71,3.76,31.71,3.76A16.1,16.1,0,0,0,627,264c3.12,3,12.48,7.05,20.38,8.67,7.67,1.57,14.37,6.5,14.78,6.8a7.08,7.08,0,0,0-1-1.25c-4.68-4.69-18-11.49-26.61-15.17s-22.72-22-22.72-22A58.47,58.47,0,0,0,609.94,226c1.17,5.54-1.38,13.81-1.38,13.81l7.17,13.48C609.06,256.59,592.58,253.59,591.21,253.34Z" transform="translate(-482.4 -64.53)"/><path class="cls-33" d="M587.24,204.45s-7.2-9-9.76-10.41-7.6.38-7.6.38,7-3.62,9.1-2.66C579,191.76,584.79,195.36,587.24,204.45Z" transform="translate(-482.4 -64.53)"/><path class="cls-14" d="M618.77,297.28c6.48,4.44,11.36,8.54,14.7,9.84,6.83,2.66,32.73.94,33.45-2.83.34-1.79.12-6.65-.71-11.79,0,0-.83,5.67-1.86,6.92s-20.56,5.91-28.9,4.87C628.66,303.44,621.3,298.94,618.77,297.28Z" transform="translate(-482.4 -64.53)"/><path class="cls-34" d="M556.5,231.17s-8.65,15.38-15.11,20.42S509.93,264,509.93,264,547.51,239.7,556.5,231.17Z" transform="translate(-482.4 -64.53)"/><path class="cls-35" d="M574.05,195.66h2.65S563.27,216.85,560.33,222s-51,26.75-55.09,27.62-11.87-2.05-11.87-2.05l9.89-2.27s42.42-15.82,52-25.36S574.05,195.66,574.05,195.66Z" transform="translate(-482.4 -64.53)"/><path class="cls-36" d="M624.54,99.66a53.47,53.47,0,0,1-12.38,17.23c-8.46,7.64-15.47,9.8-15.47,9.8s10.6,1.71,18.88-10.25S624.54,99.66,624.54,99.66Z" transform="translate(-482.4 -64.53)"/><path class="cls-37" d="M601.83,142.87a38.65,38.65,0,0,1-.55,5.49c-.45,2.07-14.63,27.63-22.3,36.51,0,0,16.81-15.29,24.54-36.42C603.52,148.45,602.4,144.47,601.83,142.87Z" transform="translate(-482.4 -64.53)"/><path class="cls-38" d="M721.18,260c2,1,1.84,11.67-1.86,12.35s-3.23-12.53,1.57-12.35Z" transform="translate(-482.4 -64.53)"/><path class="cls-39" d="M718.87,259.32s-9.26,1.9-29.31,2.12-45.59-6-45.59-6S705.83,257.88,718.87,259.32Z" transform="translate(-482.4 -64.53)"/><path class="cls-40" d="M564.45,194.29s-2,1.37-9.93,2.17-16.26-2-18.29-4.86c0,0,.39,3.75,8.67,6.42a53.13,53.13,0,0,0,16.75,2.25s1.83-1.28,2.1-2.64S564.45,194.29,564.45,194.29Z" transform="translate(-482.4 -64.53)"/><path class="cls-41" d="M534.79,187.74s-6,6.25-4.79,14.62,9.91,8.61,9.91,8.61-7.63.2-12.37-.93c0,0-7.24-7.85,2-22.3Z" transform="translate(-482.4 -64.53)"/><path class="cls-42" d="M565.44,119.84s-12.52,7-20.85,10.33-13.14,3.17-13.14,3.17l.95-5.38s10.54-1,17-2.92S565.44,119.84,565.44,119.84Z" transform="translate(-482.4 -64.53)"/><path class="cls-43" d="M589.77,311.77l-38.55,48.68a209.32,209.32,0,0,0,28.57-3.72c17.22-3.31,16.27-13.36,16.27-13.36l-.59-1.29S589.42,322.38,589.77,311.77Z" transform="translate(-482.4 -64.53)"/><path class="cls-44" d="M606.3,352.24s-4.84,1.57-16.71,3.33a124.19,124.19,0,0,1-19.19,1.58s20.26-6.89,25.66-13.78C596.06,343.37,605,346.24,606.3,352.24Z" transform="translate(-482.4 -64.53)"/><path class="cls-45" d="M595.47,342.08a26.2,26.2,0,0,1-5.88-9.57c-2.34-6.29.18-20.74.18-20.74s.93,14.13,2.26,20.13A47.57,47.57,0,0,0,595.47,342.08Z" transform="translate(-482.4 -64.53)"/><path class="cls-14" d="M586.81,282.88s-11.71-5-14.12-7.77c-3.73-4.24-2.68-36.71,3-47.22s20.5-11.72,31.83-8.61a34.51,34.51,0,0,0-22.06-1c-12.25,3.5-14.31,18.53-15,24.34s-2.4,30.76,1,33.79S586.81,282.88,586.81,282.88Z" transform="translate(-482.4 -64.53)"/><path class="cls-46" d="M607.57,219.28s-5.19-4.63-20.76-2.32c0,0-10.38-1.87-11.68-4.39a3.59,3.59,0,0,1,.61-4.28s7-7,11.5-3.84C587.24,204.45,599.45,215.38,607.57,219.28Z" transform="translate(-482.4 -64.53)"/><polygon class="cls-47" points="227.34 199.06 226.39 202.5 214.83 201.64 214.83 199.06 227.34 199.06"/><polygon class="cls-47" points="212.75 199.06 201.1 198.33 201.1 201.17 212.75 201.62 212.75 199.06"/><polygon class="cls-48" points="225.9 202.46 225.9 201.17 216.63 200.78 215.88 201.64 225.9 202.46"/><polygon class="cls-49" points="212.18 201.62 212.18 200.51 202.09 200.32 201.57 201.17 212.18 201.62"/><path class="cls-50" d="M677.45,266.44l.63-5.89-29.14-1.28v5.51h.1Zm.4-5.69-.59,5.47-28.1-1.64v-5.09Z" transform="translate(-482.4 -64.53)"/><path class="cls-51" d="M646.26,268.54a11,11,0,0,1,0-13.31L623.15,254s5.65,6.29,11.4,9S644.65,267.59,646.26,268.54Z" transform="translate(-482.4 -64.53)"/><path class="cls-14" d="M637.65,288.78s-22.73,2.11-38.43-2.18c0,0,9.82,5.3,18.54,5.87S637.65,288.78,637.65,288.78Z" transform="translate(-482.4 -64.53)"/></g></g></svg>